#define float_width 10
#define float_height 10
#define float_x_hot 0
#define float_y_hot 0
static unsigned char float_bits[] = {
   0x7f, 0x00, 0x41, 0x00, 0x41, 0x00, 0xc1, 0x03, 0x41, 0x02, 0x41, 0x02,
   0x7f, 0x02, 0x08, 0x02, 0x08, 0x02, 0xf8, 0x03 };
