#define grid_width 10
#define grid_height 10
#define grid_x_hot 0
#define grid_y_hot 0
static unsigned char grid_bits[] = {
   0xff, 0x03, 0x49, 0x02, 0x49, 0x02, 0xff, 0x03, 0x49, 0x02, 0x49, 0x02,
   0xff, 0x03, 0x49, 0x02, 0x49, 0x02, 0xff, 0x03 };
