#define monocle_width 10
#define monocle_height 10
#define monocle_x_hot 0
#define monocle_y_hot 0
static unsigned char monocle_bits[] = {
   0xff, 0x03, 0x01, 0x02, 0x01, 0x02, 0x01, 0x02, 0x01, 0x02, 0x01, 0x02,
   0x01, 0x02, 0x01, 0x02, 0x01, 0x02, 0xff, 0x03 };
