#define tabbed_bottom_width 10
#define tabbed_bottom_height 10
static unsigned char tabbed_bottom_bits[] = {
   0xff, 0x03, 0x01, 0x02, 0x01, 0x02, 0x01, 0x02, 0x01, 0x02, 0x01, 0x02,
   0x01, 0x02, 0xff, 0x03, 0x49, 0x02, 0xff, 0x03 };
