#define tile_width 10
#define tile_height 10
#define tile_x_hot 0
#define tile_y_hot 0
static unsigned char tile_bits[] = {
   0xff, 0x03, 0x21, 0x02, 0x21, 0x02, 0xe1, 0x03, 0x21, 0x02, 0x21, 0x02,
   0xe1, 0x03, 0x21, 0x02, 0x21, 0x02, 0xff, 0x03 };
