#define mtile_width 10
#define mtile_height 10
static unsigned char mtile_bits[] = {
   0xff, 0x03, 0x01, 0x02, 0x01, 0x02, 0x01, 0x02, 0x01, 0x02, 0xff, 0x03,
   0x49, 0x02, 0x49, 0x02, 0x49, 0x02, 0xff, 0x03 };
