#define tabbed_width 10
#define tabbed_height 10
static unsigned char tabbed_bits[] = {
   0xff, 0x03, 0x49, 0x02, 0xff, 0x03, 0x01, 0x02, 0x01, 0x02, 0x01, 0x02,
   0x01, 0x02, 0x01, 0x02, 0x01, 0x02, 0xff, 0x03 };
